<?xml version="1.0" encoding="UTF-8" standalone="no"?>
<svg width="512" height="512" viewBox="0 0 512 512" xmlns="http://www.w3.org/2000/svg" role="img" aria-label="Blackjack chip 1000">
  <defs>
    <filter id="softShadow" x="-20%" y="-20%" width="140%" height="140%">
      <feDropShadow dx="3.07" dy="5.12" stdDeviation="5.12" flood-opacity="0.25"/>
    </filter>
  </defs>
  <!-- Outer chip circle -->
  <circle cx="256.0" cy="256.0" r="245.76" fill="#F57C00" stroke="#000000" stroke-opacity="0.18" stroke-width="5.12" filter="url(#softShadow)"/>

  <!-- Ring -->
  <circle cx="256.0" cy="256.0" r="215.04" fill="none" stroke="#FFFFFF" stroke-width="61.44" stroke-opacity="0.9"/>

  <!-- Edge stripes -->
  
        <g transform="rotate(0.0 256.0 256.0)">
          <rect x="235.52" y="15.36" width="40.96" height="51.20" rx="5.12" fill="#FFFFFF" />
        </g>
        
        <g transform="rotate(30.0 256.0 256.0)">
          <rect x="235.52" y="15.36" width="40.96" height="51.20" rx="5.12" fill="#FFFFFF" />
        </g>
        
        <g transform="rotate(60.0 256.0 256.0)">
          <rect x="235.52" y="15.36" width="40.96" height="51.20" rx="5.12" fill="#FFFFFF" />
        </g>
        
        <g transform="rotate(90.0 256.0 256.0)">
          <rect x="235.52" y="15.36" width="40.96" height="51.20" rx="5.12" fill="#FFFFFF" />
        </g>
        
        <g transform="rotate(120.0 256.0 256.0)">
          <rect x="235.52" y="15.36" width="40.96" height="51.20" rx="5.12" fill="#FFFFFF" />
        </g>
        
        <g transform="rotate(150.0 256.0 256.0)">
          <rect x="235.52" y="15.36" width="40.96" height="51.20" rx="5.12" fill="#FFFFFF" />
        </g>
        
        <g transform="rotate(180.0 256.0 256.0)">
          <rect x="235.52" y="15.36" width="40.96" height="51.20" rx="5.12" fill="#FFFFFF" />
        </g>
        
        <g transform="rotate(210.0 256.0 256.0)">
          <rect x="235.52" y="15.36" width="40.96" height="51.20" rx="5.12" fill="#FFFFFF" />
        </g>
        
        <g transform="rotate(240.0 256.0 256.0)">
          <rect x="235.52" y="15.36" width="40.96" height="51.20" rx="5.12" fill="#FFFFFF" />
        </g>
        
        <g transform="rotate(270.0 256.0 256.0)">
          <rect x="235.52" y="15.36" width="40.96" height="51.20" rx="5.12" fill="#FFFFFF" />
        </g>
        
        <g transform="rotate(300.0 256.0 256.0)">
          <rect x="235.52" y="15.36" width="40.96" height="51.20" rx="5.12" fill="#FFFFFF" />
        </g>
        
        <g transform="rotate(330.0 256.0 256.0)">
          <rect x="235.52" y="15.36" width="40.96" height="51.20" rx="5.12" fill="#FFFFFF" />
        </g>
        

  <!-- Inner circle -->
  <circle cx="256.0" cy="256.0" r="133.12" fill="#F57C00" stroke="#FFFFFF" stroke-width="2.048"/>

  <!-- Denomination text -->
  <text x="256.0" y="256.0" text-anchor="middle" dominant-baseline="central"
        font-family="system-ui, -apple-system, Segoe UI, Roboto, Arial, sans-serif"
        font-weight="700" font-size="102.40" fill="#222222" stroke="#000000" stroke-opacity="0.25" stroke-width="5.12">
    1000
  </text>
</svg>